<?xml version="1.0" encoding="UTF-8"?>
<svg version="1.1" xmlns="http://www.w3.org/2000/svg" width="512" height="512">
<path d="M0 0 C23.26260792 21.22014576 41.05054778 45.55635043 54.47241211 73.96264648 C54.98416992 75.03256836 55.49592773 76.10249023 56.02319336 77.20483398 C64.01420266 94.82382483 69.58790212 113.84392563 72.47241211 132.96264648 C72.58810547 133.72722168 72.70379883 134.49179688 72.82299805 135.27954102 C81.05118831 193.0844088 66.66709662 253.76932114 31.90209961 300.75952148 C11.80231455 327.44234479 -13.39591631 351.8968107 -43.52758789 366.96264648 C5.31241211 367.29264648 54.15241211 367.62264648 104.47241211 367.96264648 C104.47241211 386.44264648 104.47241211 404.92264648 104.47241211 423.96264648 C-64.48758789 423.96264648 -233.44758789 423.96264648 -407.52758789 423.96264648 C-407.52758789 405.48264648 -407.52758789 387.00264648 -407.52758789 367.96264648 C-358.68758789 367.63264648 -309.84758789 367.30264648 -259.52758789 366.96264648 C-264.14758789 364.32264648 -268.76758789 361.68264648 -273.52758789 358.96264648 C-310.25826193 334.86590477 -338.81637206 301.56342946 -357.52758789 261.96264648 C-358.0393457 260.89272461 -358.55110352 259.82280273 -359.07836914 258.72045898 C-367.06937844 241.10146814 -372.6430779 222.08136734 -375.52758789 202.96264648 C-375.64328125 202.19807129 -375.75897461 201.43349609 -375.87817383 200.64575195 C-384.10636409 142.84088417 -369.7222724 82.15597183 -334.95727539 35.16577148 C-311.08392908 3.47347829 -281.36820238 -21.10280266 -245.52758789 -38.03735352 C-243.92270508 -38.80499023 -243.92270508 -38.80499023 -242.28540039 -39.58813477 C-224.66640954 -47.57914406 -205.64630875 -53.15284352 -186.52758789 -56.03735352 C-185.7630127 -56.15304688 -184.9984375 -56.26874023 -184.21069336 -56.38793945 C-117.34949597 -65.90524611 -49.93101662 -45.02785924 0 0 Z M-207.52758789 2.96264648 C-208.54054932 3.30851807 -208.54054932 3.30851807 -209.57397461 3.66137695 C-225.68781606 9.30880879 -240.87777689 17.75879057 -254.52758789 27.96264648 C-255.33325195 28.5569043 -256.13891602 29.15116211 -256.96899414 29.76342773 C-262.78600521 34.16412306 -268.19828997 38.98751077 -273.52758789 43.96264648 C-274.28040039 44.66131836 -275.03321289 45.35999023 -275.80883789 46.07983398 C-296.93249988 66.38532597 -311.4627391 94.08162465 -319.52758789 121.96264648 C-319.91974487 123.25948364 -319.91974487 123.25948364 -320.31982422 124.58251953 C-322.33733984 131.5106744 -323.43440256 138.3586907 -324.21508789 145.52514648 C-324.34028809 146.66918945 -324.46548828 147.81323242 -324.59448242 148.99194336 C-327.22306564 174.44092052 -324.87621032 199.69995203 -316.52758789 223.96264648 C-316.29700684 224.6379541 -316.06642578 225.31326172 -315.82885742 226.0090332 C-310.18142559 242.12287466 -301.7314438 257.31283548 -291.52758789 270.96264648 C-290.93333008 271.76831055 -290.33907227 272.57397461 -289.72680664 273.40405273 C-285.32611131 279.2210638 -280.5027236 284.63334857 -275.52758789 289.96264648 C-274.47958008 291.09186523 -274.47958008 291.09186523 -273.41040039 292.24389648 C-253.10490841 313.36755848 -225.40860972 327.8977977 -197.52758789 335.96264648 C-196.66302979 336.22408447 -195.79847168 336.48552246 -194.90771484 336.75488281 C-187.97955998 338.77239843 -181.13154367 339.86946115 -173.96508789 340.65014648 C-172.82104492 340.77534668 -171.67700195 340.90054687 -170.49829102 341.02954102 C-145.04931386 343.65812424 -119.79028235 341.31126891 -95.52758789 332.96264648 C-94.85228027 332.73206543 -94.17697266 332.50148438 -93.48120117 332.26391602 C-77.36735972 326.61648418 -62.17739889 318.1665024 -48.52758789 307.96264648 C-47.72192383 307.36838867 -46.91625977 306.77413086 -46.08618164 306.16186523 C-40.26917057 301.7611699 -34.85688581 296.9377822 -29.52758789 291.96264648 C-28.39836914 290.91463867 -28.39836914 290.91463867 -27.24633789 289.84545898 C-6.1226759 269.539967 8.40756332 241.84366831 16.47241211 213.96264648 C16.7338501 213.09808838 16.99528809 212.23353027 17.26464844 211.34277344 C19.28216405 204.41461857 20.37922677 197.56660227 21.15991211 190.40014648 C21.2851123 189.25610352 21.4103125 188.11206055 21.53930664 186.93334961 C24.16788986 161.48437245 21.82103454 136.22534094 13.47241211 111.96264648 C13.12654053 110.94968506 13.12654053 110.94968506 12.77368164 109.91625977 C7.1262498 93.80241831 -1.32373198 78.61245749 -11.52758789 64.96264648 C-12.1218457 64.15698242 -12.71610352 63.35131836 -13.32836914 62.52124023 C-17.72906447 56.70422917 -22.55245218 51.2919444 -27.52758789 45.96264648 C-28.22625977 45.20983398 -28.92493164 44.45702148 -29.64477539 43.68139648 C-49.95026738 22.55773449 -77.64656606 8.02749527 -105.52758789 -0.03735352 C-106.82442505 -0.4295105 -106.82442505 -0.4295105 -108.14746094 -0.82958984 C-115.0756158 -2.84710546 -121.92363211 -3.94416818 -129.09008789 -4.72485352 C-130.80615234 -4.91265381 -130.80615234 -4.91265381 -132.55688477 -5.10424805 C-158.00586192 -7.73283127 -183.26489344 -5.38597595 -207.52758789 2.96264648 Z " fill="#009D03" transform="translate(407.527587890625,88.037353515625)"/>
<path d="M0 0 C168.96 0 337.92 0 512 0 C512 17.49 512 34.98 512 53 C343.04 53 174.08 53 0 53 C0 35.51 0 18.02 0 0 Z " fill="#010101" transform="translate(0,459)"/>
<path d="M0 0 C2.30331647 1.00873031 3.65760917 2.25682436 5.42628384 4.04529762 C6.446889 5.06624268 6.446889 5.06624268 7.48811245 6.10781288 C8.57270748 7.2156337 8.57270748 7.2156337 9.67921352 8.34583473 C10.80272213 9.4757106 10.80272213 9.4757106 11.94892788 10.62841225 C14.34010896 13.03638892 16.72065018 15.45458593 19.10108852 17.87317848 C20.72019029 19.50732586 22.33997385 21.14079803 23.96046352 22.77356911 C27.93195034 26.77813695 31.89475062 30.79114655 35.85108852 34.81067848 C34.23510187 38.84475596 31.38435273 41.56528862 28.36051846 44.57540321 C27.51076791 45.43300878 27.51076791 45.43300878 26.64385068 46.30793971 C24.74324126 48.22355814 22.83554248 50.13195326 20.92774868 52.04041481 C19.56410837 53.41167569 18.2008725 54.78333887 16.83801174 56.15537453 C13.13430643 59.8810346 9.42403923 63.60009164 5.71188307 67.31732965 C3.39483605 69.63801734 1.07909331 71.95999847 -1.23621082 74.28242493 C-9.30783539 82.37854188 -17.38516272 90.46892396 -25.46727085 98.55457497 C-33.01133383 106.10227889 -40.54214787 113.66302909 -48.06708658 121.22979528 C-54.52199529 127.71932807 -60.98642313 134.19927428 -67.4583174 140.67186755 C-71.32648553 144.54083081 -75.19052382 148.41371727 -79.0448885 152.29643631 C-82.6667742 155.94436929 -86.30028693 159.58029521 -89.94326687 163.20715904 C-91.28117223 164.5432396 -92.61477928 165.88363967 -93.94382381 167.2285347 C-95.75273841 169.05770774 -97.57622027 170.8709581 -99.40437412 172.68087196 C-99.93220033 173.22189814 -100.46002654 173.76292431 -101.00384748 174.32034522 C-102.49149227 175.77408504 -102.49149227 175.77408504 -105.14891148 177.81067848 C-109.47833447 177.73645932 -111.94662984 174.42055399 -114.8161478 171.49988747 C-115.64871853 170.6703833 -115.64871853 170.6703833 -116.49810886 169.82412148 C-118.33306138 167.99217884 -120.15703553 166.1497069 -121.98094273 164.30677223 C-123.25824637 163.02640895 -124.53614338 161.74663738 -125.81460667 160.46743202 C-128.49647412 157.78095886 -131.17335565 155.08964954 -133.84642124 152.39441872 C-137.255655 148.95704544 -140.6733702 145.52827217 -144.09445763 142.10270023 C-147.37227335 138.81969663 -150.6454033 135.53203634 -153.91844273 132.24427223 C-154.84471438 131.31517949 -154.84471438 131.31517949 -155.7896986 130.3673172 C-167.65480091 118.45555786 -167.65480091 118.45555786 -172.84475803 112.33254433 C-174.51210535 110.38685385 -176.30113913 108.58453993 -178.14891148 106.81067848 C-176.78778134 103.76486362 -175.25561052 101.67228822 -172.89256382 99.32728004 C-171.90176319 98.33670601 -171.90176319 98.33670601 -170.89094639 97.32612038 C-170.17943424 96.6249308 -169.4679221 95.92374123 -168.73484898 95.20130348 C-168.00520939 94.47449379 -167.2755698 93.7476841 -166.52381992 92.99884987 C-164.19517267 90.68138651 -161.85966321 88.37097898 -159.52391148 86.06067848 C-157.94272495 84.48952404 -156.36199023 82.91791478 -154.78172398 81.34583473 C-150.90934458 77.49549196 -147.03130977 73.65091732 -143.14891148 69.81067848 C-140.14947243 71.15640735 -138.06814969 72.64604949 -135.75730991 74.97522926 C-135.11694798 75.61574226 -134.47658604 76.25625526 -133.81681919 76.91617775 C-133.1375034 77.60581612 -132.4581876 78.29545448 -131.75828648 79.00599098 C-131.05367283 79.71343452 -130.34905918 80.42087807 -129.62309361 81.14975929 C-127.37695758 83.4070771 -125.13788139 85.67125481 -122.89891148 87.93567848 C-121.3759343 89.46868802 -119.85250209 91.00124563 -118.32859898 92.53333473 C-114.5967422 96.28722534 -110.87106305 100.04716751 -107.14891148 103.81067848 C-101.22272894 98.90468495 -95.82421644 93.59007046 -90.42161655 88.11756325 C-89.46182938 87.14929274 -88.50177441 86.18128762 -87.54147434 85.21352577 C-85.4870073 83.1424415 -83.43394973 81.06997384 -81.38186169 78.99653244 C-78.13765039 75.71953979 -74.88734184 72.44864101 -71.63565159 69.17907143 C-70.52000609 68.05716619 -69.40436068 66.93526086 -68.28871536 65.81335545 C-67.7304463 65.25197026 -67.17217725 64.69058508 -66.59699094 64.11218822 C-59.0355673 56.50780726 -51.47882289 48.89886327 -43.93626499 41.27576637 C-38.835384 36.12051367 -33.72575191 30.97411534 -28.60580271 25.83779758 C-25.8994508 23.12205755 -23.19790824 20.40188196 -20.50707531 17.67075729 C-17.98219916 15.10817273 -15.44605604 12.55732039 -12.90063 10.01515198 C-11.5213066 8.63142212 -10.15449889 7.23525204 -8.78804111 5.83881569 C-7.96807148 5.02427422 -7.14810184 4.20973274 -6.30328465 3.37050819 C-5.59337785 2.65469361 -4.88347105 1.93887903 -4.15205193 1.2013731 C-2.14891148 -0.18932152 -2.14891148 -0.18932152 0 0 Z " fill="#009D03" transform="translate(327.14891147613525,176.18932151794434)"/>
<path d="M0 0 C168.96 0 337.92 0 512 0 C512 0.99 512 1.98 512 3 C343.04 3 174.08 3 0 3 C0 2.01 0 1.02 0 0 Z " fill="#FFFFFF" transform="translate(0,456)"/>
<path d="M0 0 C2.12890625 0.4765625 2.12890625 0.4765625 4.69140625 2.4765625 C6.86835897 7.01976819 6.97952293 10.99014452 5.31640625 15.8515625 C4.12890625 17.4765625 4.12890625 17.4765625 1.12890625 19.4765625 C-5.02125349 20.14748902 -5.02125349 20.14748902 -8.24609375 17.6015625 C-11.20558366 13.73146031 -11.4908509 10.2432241 -10.87109375 5.4765625 C-8.38433709 0.28680946 -5.4006303 -0.33809547 0 0 Z " fill="#E5E5E5" transform="translate(46.87109375,475.5234375)"/>
<path d="M0 0 C1.74609375 1.15625 1.74609375 1.15625 3 3 C3.68326251 7.0483304 3.59333986 10.94177927 3 15 C0.46553184 18.27989997 -0.98361289 18.80942742 -5 19.5625 C-8 19 -8 19 -10.875 17.125 C-13.84649145 12.75515964 -13.90105272 9.13773328 -13 4 C-10.27706917 -0.97230847 -5.17125498 -1.05710737 0 0 Z " fill="#F0F0F0" transform="translate(450,476)"/>
<path d="M0 0 C1.65 0 3.3 0 5 0 C6.58203125 1.75 6.58203125 1.75 7.8125 4 C8.23144531 4.7425 8.65039062 5.485 9.08203125 6.25 C9.38496094 6.8275 9.68789062 7.405 10 8 C10.33 5.36 10.66 2.72 11 0 C12.65 0 14.3 0 16 0 C16 5.94 16 11.88 16 18 C14.35 18.33 12.7 18.66 11 19 C8.525 15.04 8.525 15.04 6 11 C5.67 13.64 5.34 16.28 5 19 C3.35 18.67 1.7 18.34 0 18 C0 12.06 0 6.12 0 0 Z " fill="#E9E9E9" transform="translate(161,476)"/>
<path d="M0 0 C5 0 5 0 6.58203125 1.53125 C6.98808594 2.1809375 7.39414062 2.830625 7.8125 3.5 C8.23144531 4.1496875 8.65039062 4.799375 9.08203125 5.46875 C9.38496094 5.9740625 9.68789062 6.479375 10 7 C10.33 4.69 10.66 2.38 11 0 C12.65 0 14.3 0 16 0 C16 6.27 16 12.54 16 19 C11 18 11 18 9.41796875 16.15234375 C8.27864583 14.1015625 7.13932292 12.05078125 6 10 C5.67 12.97 5.34 15.94 5 19 C3.35 18.67 1.7 18.34 0 18 C0 12.06 0 6.12 0 0 Z " fill="#EAEAEA" transform="translate(55,476)"/>
<path d="M0 0 C10.42888497 -0.36807829 10.42888497 -0.36807829 12.87890625 1.2109375 C14.40886156 3.65246897 14.08332493 4.99769313 13.625 7.8125 C13.08213602 11.79933973 13.06204078 15.03972772 14 19 C12.35 19 10.7 19 9 19 C8.34 16.69 7.68 14.38 7 12 C6.34 12 5.68 12 5 12 C5 14.31 5 16.62 5 19 C3.35 19 1.7 19 0 19 C0 12.73 0 6.46 0 0 Z " fill="#E0E0E0" transform="translate(357,476)"/>
<path d="M0 0 C1.65 0 3.3 0 5 0 C6.58203125 1.75 6.58203125 1.75 7.8125 4 C8.23144531 4.7425 8.65039062 5.485 9.08203125 6.25 C9.38496094 6.8275 9.68789063 7.405 10 8 C10.33 5.36 10.66 2.72 11 0 C12.32 0 13.64 0 15 0 C15 6.27 15 12.54 15 19 C13.68 19 12.36 19 11 19 C9.515625 17.25 9.515625 17.25 8.25 15 C7.82203125 14.2575 7.3940625 13.515 6.953125 12.75 C6.48132813 11.88375 6.48132813 11.88375 6 11 C5.67 13.64 5.34 16.28 5 19 C3.35 19 1.7 19 0 19 C0 12.73 0 6.46 0 0 Z " fill="#F1F1F1" transform="translate(456,476)"/>
<path d="M0 0 C1.65 0 3.3 0 5 0 C5.33 1.32 5.66 2.64 6 4 C6.37125 3.34 6.7425 2.68 7.125 2 C9 0 9 0 12.1875 -0.25 C13.115625 -0.1675 14.04375 -0.085 15 0 C13.84826645 2.46800047 12.95216435 4.04783565 11 6 C11.28356955 10.34806636 12.33836186 12.64402148 15 16 C15 16.99 15 17.98 15 19 C12.6875 19.3125 12.6875 19.3125 10 19 C8.3125 16.5625 8.3125 16.5625 7 14 C6.34 13.67 5.68 13.34 5 13 C5 14.98 5 16.96 5 19 C3.35 19 1.7 19 0 19 C0 12.73 0 6.46 0 0 Z " fill="#EDEDED" transform="translate(122,476)"/>
<path d="M0 0 C2.31 0 4.62 0 7 0 C7.84080019 2.41429769 8.67281402 4.83103993 9.5 7.25 C9.73847656 7.93191406 9.97695312 8.61382812 10.22265625 9.31640625 C11.39421287 12.76413003 12 15.31702904 12 19 C10.35 19 8.7 19 7 19 C6.67 17.68 6.34 16.36 6 15 C4.35 14.67 2.7 14.34 1 14 C0.67 15.65 0.34 17.3 0 19 C-1.65 19 -3.3 19 -5 19 C-3.64746536 12.54945018 -1.96939767 6.28894321 0 0 Z " fill="#E4E4E4" transform="translate(92,476)"/>
<path d="M0 0 C4.29 0 8.58 0 13 0 C13 1.32 13 2.64 13 4 C10.36 4 7.72 4 5 4 C5 4.99 5 5.98 5 7 C7.31 7 9.62 7 12 7 C12 8.32 12 9.64 12 11 C9.69 11 7.38 11 5 11 C5 11.99 5 12.98 5 14 C7.64 14 10.28 14 13 14 C13 15.65 13 17.3 13 19 C8.71 19 4.42 19 0 19 C0 12.73 0 6.46 0 0 Z " fill="#E8E8E8" transform="translate(389,476)"/>
<path d="M0 0 C3.96 0 7.92 0 12 0 C12 1.32 12 2.64 12 4 C9.69 4 7.38 4 5 4 C5 4.99 5 5.98 5 7 C7.31 7 9.62 7 12 7 C12 8.32 12 9.64 12 11 C9.69 11 7.38 11 5 11 C5 11.99 5 12.98 5 14 C7.31 14 9.62 14 12 14 C12.33 15.65 12.66 17.3 13 19 C8.71 19 4.42 19 0 19 C0 12.73 0 6.46 0 0 Z " fill="#EAEAEA" transform="translate(180,476)"/>
<path d="M0 0 C10.46606289 -0.36939045 10.46606289 -0.36939045 12.86328125 1.2890625 C14 3 14 3 13.875 6.5625 C13 10 13 10 10 12 C7.3125 12.125 7.3125 12.125 5 12 C5 14.31 5 16.62 5 19 C3.35 19 1.7 19 0 19 C0 12.73 0 6.46 0 0 Z " fill="#E1E1E1" transform="translate(74,476)"/>
<path d="M0 0 C0.90492188 0.02320313 1.80984375 0.04640625 2.7421875 0.0703125 C4.10730469 0.09738281 4.10730469 0.09738281 5.5 0.125 C6.19867188 0.14820313 6.89734375 0.17140625 7.6171875 0.1953125 C7.6171875 1.5153125 7.6171875 2.8353125 7.6171875 4.1953125 C5.3071875 4.1953125 2.9971875 4.1953125 0.6171875 4.1953125 C2.01093822 6.98281394 3.77963611 7.08797537 6.6171875 8.1953125 C8.6171875 10.1953125 8.6171875 10.1953125 8.9921875 13.1328125 C8.6171875 16.1953125 8.6171875 16.1953125 7.1171875 18.0703125 C3.49458627 19.70048305 0.57172092 19.39303917 -3.3828125 19.1953125 C-3.7128125 17.5453125 -4.0428125 15.8953125 -4.3828125 14.1953125 C-1.7428125 14.1953125 0.8971875 14.1953125 3.6171875 14.1953125 C3.6171875 13.5353125 3.6171875 12.8753125 3.6171875 12.1953125 C2.5034375 11.9271875 1.3896875 11.6590625 0.2421875 11.3828125 C-3.3828125 10.1953125 -3.3828125 10.1953125 -5.3828125 7.1953125 C-4.99412171 3.21123191 -4.47217555 0.36657177 0 0 Z " fill="#E9E9E9" transform="translate(143.3828125,475.8046875)"/>
<path d="M0 0 C3.96 0 7.92 0 12 0 C12 1.32 12 2.64 12 4 C9.69 4 7.38 4 5 4 C5 4.99 5 5.98 5 7 C6.98 7 8.96 7 11 7 C11 8.32 11 9.64 11 11 C9.02 11 7.04 11 5 11 C5 11.99 5 12.98 5 14 C7.31 14 9.62 14 12 14 C12 15.65 12 17.3 12 19 C8.04 19 4.08 19 0 19 C0 12.73 0 6.46 0 0 Z " fill="#EEEEEE" transform="translate(374,476)"/>
<path d="M0 0 C0.33 1.32 0.66 2.64 1 4 C-1.64 4.33 -4.28 4.66 -7 5 C-7 7.64 -7 10.28 -7 13 C-4.69 13.33 -2.38 13.66 0 14 C0.33 15.32 0.66 16.64 1 18 C-2.19233485 19.59616743 -5.53461497 19.51466114 -9 19 C-11.43119623 17.12984906 -12.64069173 15.71861655 -14 13 C-14.36104805 8.59521377 -14.46851135 6.02220658 -12.625 2 C-8.65400033 -1.02552356 -4.8219397 -0.41409788 0 0 Z " fill="#E6E6E6" transform="translate(119,476)"/>
<path d="M0 0 C1.33998047 0.06960938 1.33998047 0.06960938 2.70703125 0.140625 C3.60808594 0.17671875 4.50914062 0.2128125 5.4375 0.25 C6.46810547 0.31960938 6.46810547 0.31960938 7.51953125 0.390625 C7.84953125 1.710625 8.17953125 3.030625 8.51953125 4.390625 C6.81796875 4.6071875 6.81796875 4.6071875 5.08203125 4.828125 C1.71175924 5.00233978 1.71175924 5.00233978 0.51953125 6.390625 C0.47860188 8.72359933 0.47711402 11.05767725 0.51953125 13.390625 C3.15953125 13.720625 5.79953125 14.050625 8.51953125 14.390625 C8.51953125 15.710625 8.51953125 17.030625 8.51953125 18.390625 C5.30326594 19.99875766 2.00729838 19.84555115 -1.48046875 19.390625 C-3.98046875 18.078125 -3.98046875 18.078125 -5.48046875 15.390625 C-6.09496024 10.73602856 -6.47527227 6.3156344 -4.27734375 2.0625 C-2.48046875 0.390625 -2.48046875 0.390625 0 0 Z " fill="#EEEEEE" transform="translate(426.48046875,475.609375)"/>
<path d="M0 0 C0 1.32 0 2.64 0 4 C-1.7015625 4.2165625 -1.7015625 4.2165625 -3.4375 4.4375 C-6.80777201 4.61171478 -6.80777201 4.61171478 -8 6 C-8.04092937 8.33297433 -8.04241723 10.66705225 -8 13 C-5.36 13.33 -2.72 13.66 0 14 C-0.33 15.65 -0.66 17.3 -1 19 C-8.04477612 19.59701493 -8.04477612 19.59701493 -12 17.125 C-14.81177501 12.73160154 -14.88226521 9.07944924 -14 4 C-11.0952097 -1.54550875 -5.50906147 -0.37848514 0 0 Z " fill="#EFEFEF" transform="translate(34,476)"/>
<path d="M0 0 C3.96 0 7.92 0 12 0 C12 1.32 12 2.64 12 4 C9.69 4 7.38 4 5 4 C5 4.99 5 5.98 5 7 C6.98 7 8.96 7 11 7 C11 8.32 11 9.64 11 11 C9.02 11 7.04 11 5 11 C5 13.64 5 16.28 5 19 C3.35 19 1.7 19 0 19 C0 12.73 0 6.46 0 0 Z " fill="#F0F0F0" transform="translate(343,476)"/>
<path d="M0 0 C4.62 0 9.24 0 14 0 C14 1.32 14 2.64 14 4 C12.35 4 10.7 4 9 4 C9 8.95 9 13.9 9 19 C7.35 19 5.7 19 4 19 C4 14.05 4 9.1 4 4 C2.68 4 1.36 4 0 4 C0 2.68 0 1.36 0 0 Z " fill="#ECECEC" transform="translate(194,476)"/>
<path d="M0 0 C0.33 0 0.66 0 1 0 C1 5.94 1 11.88 1 18 C0.01 17.01 -0.98 16.02 -2 15 C-4.32275177 14.59952556 -6.65739357 14.2602896 -9 14 C-10 13 -10 13 -10.1328125 11.1875 C-10.13023438 10.465625 -10.12765625 9.74375 -10.125 9 C-10.12757812 8.278125 -10.13015625 7.55625 -10.1328125 6.8125 C-10 5 -10 5 -9 4 C-6.34536879 3.54540142 -3.67810862 3.29756762 -1 3 C-0.67 2.01 -0.34 1.02 0 0 Z " fill="#121212" transform="translate(121,476)"/>
<path d="M0 0 C4.29238623 1.65091778 6.8793915 4.73754566 10 8 C8.34908222 12.29238623 5.26245434 14.8793915 2 18 C0.68 17.34 -0.64 16.68 -2 16 C-0.66666667 13.33333333 0.66666667 10.66666667 2 8 C0.68 6.68 -0.64 5.36 -2 4 C-1.34 2.68 -0.68 1.36 0 0 Z " fill="#DFDFDF" transform="translate(488,477)"/>
<path d="M0 0 C1.65 0 3.3 0 5 0 C5 6.27 5 12.54 5 19 C3.35 19 1.7 19 0 19 C0 12.73 0 6.46 0 0 Z " fill="#F1F1F1" transform="translate(12,476)"/>
<path d="M0 0 C1.65 0 3.3 0 5 0 C5 5.94 5 11.88 5 18 C3.35 18.33 1.7 18.66 0 19 C0 12.73 0 6.46 0 0 Z " fill="#E9E9E9" transform="translate(413,476)"/>
<path d="M0 0 C1.67542976 0.28604898 3.34385343 0.61781233 5 1 C5 3.64 5 6.28 5 9 C3.34385343 9.38218767 1.67542976 9.71395102 0 10 C-1 9 -1 9 -1.1328125 7.1875 C-1.13023437 6.465625 -1.12765625 5.74375 -1.125 5 C-1.12757813 4.278125 -1.13015625 3.55625 -1.1328125 2.8125 C-1 1 -1 1 0 0 Z " fill="#0B0B0B" transform="translate(443,480)"/>
<path d="M0 0 C1.98 0.495 1.98 0.495 4 1 C4 3.97 4 6.94 4 10 C2.35 10 0.7 10 -1 10 C-1.02689216 8.52093108 -1.04634621 7.04172517 -1.0625 5.5625 C-1.07410156 4.73878906 -1.08570313 3.91507812 -1.09765625 3.06640625 C-1 1 -1 1 0 0 Z " fill="#020202" transform="translate(43,480)"/>
<path d="M0 0 C1.98 0.495 1.98 0.495 4 1 C3.67 2.32 3.34 3.64 3 5 C1.68 4.67 0.36 4.34 -1 4 C-0.67 2.68 -0.34 1.36 0 0 Z " fill="#DADADA" transform="translate(155,490)"/>
</svg>
